<svg id="图层_1" data-name="图层 1" xmlns="http://www.w3.org/2000/svg" viewBox="0 0 376.25 56.78"><defs><style>.cls-1,.cls-2{stroke:#000;}.cls-1{stroke-miterlimit:10;stroke-width:0.75px;}.cls-2{stroke-linecap:round;stroke-linejoin:round;stroke-width:3px;}</style></defs><title>飒爽师叔|Blog</title><path class="cls-1" d="M271.94,274.77a1.93,1.93,0,0,1,1.17,1.75,2.26,2.26,0,0,1-1.54,2.12,7.49,7.49,0,0,0-2.73,2.17,17.75,17.75,0,0,1-2,2.14,14.68,14.68,0,0,1-2,1.3,7.4,7.4,0,0,0-2.23,2.07,4.14,4.14,0,0,0-.95,2c0,.25.14.38.42.38a4.86,4.86,0,0,0,1.88-1.17,24.24,24.24,0,0,0,3.85-4.45,2,2,0,0,1,1.69-.9,10.86,10.86,0,0,1,1.38.21,4.15,4.15,0,0,1,2,.93,1.91,1.91,0,0,1,.85,1.4,4.36,4.36,0,0,1-1.27,2.62,29.88,29.88,0,0,0-3,4.69,9.94,9.94,0,0,1,1.14-.05,2.39,2.39,0,0,1,1.43.48,1.39,1.39,0,0,1,.66,1.14.94.94,0,0,1-.58.93,52.44,52.44,0,0,0-5.22,3,44.75,44.75,0,0,0-4.59,3.23,3.68,3.68,0,0,1-1.93,1.06,6.92,6.92,0,0,1-2.68-1.33q-2-1.32-2-2c0-.44.37-.72,1.11-.82,1.41-.22,3.71-1.36,6.89-3.45a14.53,14.53,0,0,0,3.21-5.27,27.69,27.69,0,0,0,1.4-4c0-.29-.07-.43-.21-.43-.46,0-.9.87-1.33,2.6a11.06,11.06,0,0,1-2.35,4.61c-1.15,1.34-1.95,2-2.39,2s-1-.71-1.77-2.14a8.23,8.23,0,0,1-1.12-2.92,3.16,3.16,0,0,1,.48-1.59,22.15,22.15,0,0,1,1.75-2.41,14,14,0,0,1-4.24-2.44c-1-.92-1.54-1.5-1.54-1.75a.32.32,0,0,1,.35-.37,4.53,4.53,0,0,1,1.27.37,4.88,4.88,0,0,0,1.85.37,5.63,5.63,0,0,0,2.71-1.21c1.18-.82,3.18-2.44,6-4.88-.53,0-1.14-.05-1.83-.05a6.08,6.08,0,0,0-1.77.23,4.41,4.41,0,0,1-1,.24.19.19,0,0,1-.21-.21c0-.14.23-.33.69-.58,1.94-1.06,2.92-1.82,2.92-2.28,0-.14-.16-.35-.48-.64a14.14,14.14,0,0,1-1.56-1.88,5,5,0,0,1-1.09-1.88c0-.28.17-.42.53-.42a16.73,16.73,0,0,1,3.34,1.06,15.36,15.36,0,0,1,4.13,2.12,2.86,2.86,0,0,1,1.33,2.09A3.75,3.75,0,0,1,271.94,274.77Zm18.55,12.66a26.59,26.59,0,0,1,5.62,3.63,25.86,25.86,0,0,1,4.45,4.69,15.52,15.52,0,0,0,2,2.12,1.29,1.29,0,0,1,.42,1,2.83,2.83,0,0,1-1.7,2.41,10.13,10.13,0,0,1-5,1,8.66,8.66,0,0,1-5.83-2.17,12,12,0,0,1-3.57-6.36c-1-.14-2.42-1-4.19-2.7q-2.28,3.81-4.66,3.81a3.07,3.07,0,0,1-1.91-.69,12.69,12.69,0,0,1-1,5c-.6,1.24-1.34,1.85-2.22,1.85a1.59,1.59,0,0,1-1.7-1.06,5.72,5.72,0,0,1-.37-1.9,5.9,5.9,0,0,1,.26-1.7c.46,1.48.82,2.23,1.06,2.23s.55-.57.9-1.7a13.85,13.85,0,0,0,.59-3.82q.32-13.56.71-14.84a6.9,6.9,0,0,0,.4-1.93,1.22,1.22,0,0,0-.58-1.06c-.39-.27-.59-.47-.59-.61s.26-.21.77-.21a11.9,11.9,0,0,1,3,.79,7.08,7.08,0,0,1,4.13-4.4,10.77,10.77,0,0,0,2.18-1.14,9.83,9.83,0,0,0,2-1.56,4.81,4.81,0,0,1,3.39-1.91,1.73,1.73,0,0,1,.85.19,8.86,8.86,0,0,1,1.4,1.51,8.36,8.36,0,0,0,1.62,1.64,1.22,1.22,0,0,1,.53,1.14,10.35,10.35,0,0,1-.95,3.1,29.45,29.45,0,0,0-1.41,4,53.93,53.93,0,0,0-.93,6.92q-.46,5.16-.47,6.81a18.59,18.59,0,0,0,.31,3.36,3.48,3.48,0,0,0,2.23,2.57,9.48,9.48,0,0,0,3.92.85c1,0,1.54-.22,1.54-.66s-.65-1.72-1.93-3.84A33.27,33.27,0,0,0,290.49,287.43Zm-11.29.64a8.66,8.66,0,0,0-2.86-1.49,12.1,12.1,0,0,0-.32,3q0,1.76.06,2.76a3.78,3.78,0,0,0,1.64-1.19A14.78,14.78,0,0,0,279.2,288.07Zm7.42.85q1.06-8.85,1.8-14.15c.5-3.54.75-5.32.75-5.36,0-.6-.2-.9-.59-.9-.21,0-.4.16-.58.48a9.37,9.37,0,0,1-2.2,2.91,5.48,5.48,0,0,1-2.83,1.49q-3.66.53-4.88,2.44c.71.56,1.06,1.07,1.06,1.51a1.3,1.3,0,0,1-.5,1.06,3.18,3.18,0,0,0-.88,1.56,38,38,0,0,0-.9,3.87,10.76,10.76,0,0,1,2-.21,8.89,8.89,0,0,1,1.7.16,15.48,15.48,0,0,0,.69-3.69,4.45,4.45,0,0,0-.16-1.51,1.28,1.28,0,0,0-.72-.53.75.75,0,0,1-.55-.74c0-.6.72-.9,2.17-.9a5,5,0,0,1,2.94.95c.9.64,1.35,1.21,1.35,1.73a2.44,2.44,0,0,1-.37,1.35q-1,1.59-1.32,5.93A13.19,13.19,0,0,1,286.62,288.92Z" transform="translate(-255.14 -259.07)"/><path class="cls-1" d="M330.4,292.73a20,20,0,0,1,5.83,3.93,33.06,33.06,0,0,0,5.49,4.18q2.25,1.28,8,3.76t5.73,4.09c0,.35-.51.66-1.51.92a14.5,14.5,0,0,1-3.69.4,20.17,20.17,0,0,1-3.68-.29,8.26,8.26,0,0,1-2.25-.69,17.87,17.87,0,0,1-2.76-2.23,19.13,19.13,0,0,1-3.34-3.89q-3.76-5.73-8.74-5.46a9.73,9.73,0,0,1-3.47,5.83,17.74,17.74,0,0,1-6.55,3.63,21.08,21.08,0,0,1-5.12,1.09c-1,0-1.51-.13-1.51-.37s.18-.34.53-.48a22.41,22.41,0,0,0,7.19-4.35,21.11,21.11,0,0,0,5.32-6.94,29.74,29.74,0,0,0-2.91-1.48,12.92,12.92,0,0,1-2.39,1.75,4.42,4.42,0,0,1-1.59.63q-2.38,0-3.15-.87c-.51-.59-.77-1-.77-1.25s.1-.37.29-.37a2.72,2.72,0,0,1,.69.11,4.53,4.53,0,0,0,1.09.1,3.44,3.44,0,0,0,3.07-1.32q-3.71-2.07-5-2.07a2.84,2.84,0,0,0-1,.21,2.76,2.76,0,0,1-.74.21c-.13,0-.19,0-.19-.05s.4-.5,1.19-1.09a4.63,4.63,0,0,1,2.79-.87,27.18,27.18,0,0,1,4.82.64,7.77,7.77,0,0,0,.85-2.39,1.4,1.4,0,0,0-.32-.95,10.44,10.44,0,0,1-2.68,1.61,6.44,6.44,0,0,1-2.36.61,1.63,1.63,0,0,1-1.4-.71,2.34,2.34,0,0,1-.5-1q0-.24.45-.21l.55,0a4,4,0,0,0,2.34-.74,13.51,13.51,0,0,0,2.43-2.44c-4.48-.71-6.73-1.24-6.73-1.59s.48-.81,1.43-1.35a8.85,8.85,0,0,1,4.3-.82,15.59,15.59,0,0,1,2.91.26,1.77,1.77,0,0,0,0-.48A8.3,8.3,0,0,0,322,276.2a11.5,11.5,0,0,1-1.35-1.67,5.65,5.65,0,0,1-.87-1.46q0-.21.18-.21a3.54,3.54,0,0,1,.67.1,6.51,6.51,0,0,0,1.45.11,8.57,8.57,0,0,0,2.79-.69,46.53,46.53,0,0,0,4.71-2.22c.18-2.05.27-3.6.27-4.64a6.2,6.2,0,0,0-.45-2.55,10.43,10.43,0,0,0-1.83-2.46.9.9,0,0,1-.32-.58c0-.32.35-.48,1.06-.48a13.68,13.68,0,0,1,2.62.32,3.16,3.16,0,0,1,2.18,1.27,5.45,5.45,0,0,1,.61,2.86,42.49,42.49,0,0,1-.32,4.67,9.61,9.61,0,0,1,3-.48,3.89,3.89,0,0,1,2.49.79,2.44,2.44,0,0,1,1,2,2.64,2.64,0,0,1-1,2.07,55.81,55.81,0,0,1-7.13,3.95,34.64,34.64,0,0,0-.21,5.24A63.94,63.94,0,0,1,330.4,292.73ZM328.7,278a2.51,2.51,0,0,1-.9.05c0,.6.06,1.1.06,1.49a4.87,4.87,0,0,1-1,3.18,5.33,5.33,0,0,1,1,2,1.58,1.58,0,0,1-.24.87,1,1,0,0,1-.88.37,4.68,4.68,0,0,1-2.06-.95,9.62,9.62,0,0,1-1.22,1,4.81,4.81,0,0,1,2.09,1.59,3,3,0,0,1,.66,1.59,1.09,1.09,0,0,1-.45.95,2.57,2.57,0,0,0-.77,1.32,3.55,3.55,0,0,1,1.28,1c.1-1,.26-1.54.47-1.54a1.39,1.39,0,0,1,.69.22,16.94,16.94,0,0,0,.74-2.92,17.4,17.4,0,0,0,.38-2.75Q328.6,278.15,328.7,278Zm12.14,11.39a7,7,0,0,1,2.33,2.28,4.42,4.42,0,0,1,.75,2c0,.46-.18.69-.53.69a22.36,22.36,0,0,1-4.51-2.17q-2.28,2.28-3.42,2.28a4.58,4.58,0,0,1-2.49-.9c-.9-.6-1.35-1-1.35-1.22s.23-.29.69-.24a11,11,0,0,0,1.11.08,3.33,3.33,0,0,0,2.7-1.06,18.8,18.8,0,0,1-3.28-1.32c-.67-.39-1-.69-1-.91s.23-.41.69-.61a6.37,6.37,0,0,1,2.25-.29,15.39,15.39,0,0,1,3.1.32,3.68,3.68,0,0,0,.16-1.11,3.24,3.24,0,0,0-.18-1.09,2.26,2.26,0,0,1-.19-.74c0-.16.19-.24.56-.24s.93.35,1.69,1.06a2.87,2.87,0,0,1,1.14,1.86A4,4,0,0,1,340.84,289.39Zm-.9-8.63a3.44,3.44,0,0,1,2.33,3.44.63.63,0,0,1-.37.58,2,2,0,0,1-1,.22,9.73,9.73,0,0,1-3-1.22q-2.76,3.23-4.48,3.23c-1.15,0-1.72-.26-1.72-.77a.92.92,0,0,1,.74-1,6.41,6.41,0,0,0,3.6-2.33,13.23,13.23,0,0,1-3.1-1.75c-.62-.53-.93-.94-.93-1.22s.21-.49.61-.64a5.13,5.13,0,0,1,1.73-.18,15.47,15.47,0,0,1,3.44.71,3.32,3.32,0,0,0,.42-1.56,4.64,4.64,0,0,0-.66-2,9.92,9.92,0,0,1-.66-1.35c0-.08,0-.11.05-.11A8.67,8.67,0,0,1,339.3,276c1.31.81,2,1.61,2,2.38a1.44,1.44,0,0,1-.4.85A8.22,8.22,0,0,0,339.94,280.76Z" transform="translate(-255.14 -259.07)"/><path class="cls-1" d="M391,274.34a11.87,11.87,0,0,1,3.55-.95,4.88,4.88,0,0,1,2.33.95,7.64,7.64,0,0,1,2,1.7,3.73,3.73,0,0,1,.53,2.17,68.88,68.88,0,0,1-.43,7.42,31.57,31.57,0,0,1-1.32,6.55,16.83,16.83,0,0,1-1.38,3.36c-.32.46-.61.69-.88.69s-.55-.26-.87-.79a30.72,30.72,0,0,0-3.66-5.36,76.42,76.42,0,0,1-1,12.8c-.68,3.94-1.16,5.91-1.46,5.91s-.71-2-1.22-6.07a180.59,180.59,0,0,1-.72-20.32c-.7.21-1.35,1-1.93,2.41s-1.53,4.2-2.84,8.4c-.17.5-.36.74-.55.74s-.66-.47-1.41-1.43a5.29,5.29,0,0,1-1.11-3.34,1.81,1.81,0,0,1,.11-.74,17.57,17.57,0,0,0,1.48-3.47,9.46,9.46,0,0,0,.42-2.31,2.21,2.21,0,0,0-.66-1.51,3.15,3.15,0,0,1-.66-2.2,4,4,0,0,1,.42-1.83c.29-.54.49-.82.61-.82s.23.28.32.82a1.72,1.72,0,0,0,1,1.28,4.84,4.84,0,0,1,1.67,1.61,26.33,26.33,0,0,0,3.07-3.28,8.31,8.31,0,0,0-1.54-4.93,12.11,12.11,0,0,0-2.73-.32,4.59,4.59,0,0,0-2.78,1.11,16.83,16.83,0,0,0-3.12,3.5,78,78,0,0,0-1.17,12.51,34.7,34.7,0,0,1-1.19,7.68q-1.14,4.52-1.94,4.51-.42,0-1.53-1.11a4.94,4.94,0,0,1-1.12-3.61c0-.77.06-1.67.16-2.67s.2-1.51.29-1.51.14.6.14,1.8.12,1.8.37,1.8.25-.21.45-.64a15.63,15.63,0,0,0,.69-2.83q.39-2.2.74-9.81t.34-12.48a6.52,6.52,0,0,0-.58-3.23q-.58-1-.93-1a.43.43,0,0,0-.45.32l-1.85,9.81a8.11,8.11,0,0,1,1.9,4.93,5.57,5.57,0,0,1-.15,1.27q-1.59,6-2.39,10.49c-.14.82-.34,1.22-.58,1.22s-1.08-.74-2.07-2.23a7.34,7.34,0,0,1-1.48-3.92,2.37,2.37,0,0,1,.1-.74,14.28,14.28,0,0,0,1.22-4.82,4.57,4.57,0,0,0-.79-2.81,6.17,6.17,0,0,1-1.09-2.25,8.8,8.8,0,0,1-.29-1.88c0-.89.33-1.33,1-1.33a1.52,1.52,0,0,1,.74.21,8.56,8.56,0,0,0,3.28,1.49,35.46,35.46,0,0,0,1.22-5.14,39.57,39.57,0,0,0,.64-4.83,1.58,1.58,0,0,1,1.75-1.75c1.13,0,2.36.76,3.68,2.28a6.62,6.62,0,0,1,2,4.14,1.92,1.92,0,0,1-.16.79,17,17,0,0,0-.74,4.29,47.92,47.92,0,0,0,3.55-5.3,5,5,0,0,1,3.23-2.91,45.21,45.21,0,0,0,5.43-1.54,13.44,13.44,0,0,0,3.48-1.56,3.12,3.12,0,0,1,2.06-.61,5,5,0,0,1,3.08,1.51c1.16,1,1.75,1.67,1.75,2s-.34.55-1,.69A23.56,23.56,0,0,0,390,270.9,14.09,14.09,0,0,1,391,274.34Zm.21,11.56a4.19,4.19,0,0,0,1,1.69,1.79,1.79,0,0,0,1.06.64.64.64,0,0,0,.55-.21,8.59,8.59,0,0,0,.4-2.18,32.8,32.8,0,0,0,.24-4,16.61,16.61,0,0,0-.14-2.7c-.08-.44-.31-.66-.68-.66a6.55,6.55,0,0,0-2.31,1C391.39,282,391.33,284.17,391.19,285.9Z" transform="translate(-255.14 -259.07)"/><path class="cls-1" d="M450.39,291.62q6.94,4,8.62,6.25a10.09,10.09,0,0,1,1.66,6.15,5,5,0,0,1-.1,1.41q-.1.18-.48.18a5.66,5.66,0,0,1-2.73-1.32,19.73,19.73,0,0,1-3.47-3.29,26.93,26.93,0,0,0-6-5.56,26.44,26.44,0,0,1-4.11,3.57,5.33,5.33,0,0,1-2.83.82,5,5,0,0,1-2.7-.92,10.18,10.18,0,0,1-2.23-1.86,4.82,4.82,0,0,1-1.06-2c-.21-1-.94-1.46-2.17-1.43-.18,2.23-.27,4.15-.27,5.78l.11,3.44a5.84,5.84,0,0,1-.32,2.12c-.21.53-.49.8-.82.8a1.2,1.2,0,0,1-.93-.53q-4-4.72-5.88-5c-1.45,1.69-2.37,2.81-2.76,3.34s-.75.79-1.09.79-.61-.45-.84-1.35a13.19,13.19,0,0,1-.35-3.23,6,6,0,0,1,.24-2.28,1,1,0,0,1,.66-.51,1,1,0,0,0,.67-.63,2.39,2.39,0,0,0,.23-1,1.28,1.28,0,0,0-.18-.72,1.09,1.09,0,0,1-.19-.66c0-.27.29-.4.85-.4a1.6,1.6,0,0,1,1.35.66c.34.45.58.67.72.67a.94.94,0,0,0,.42-.11c1.77-.85,3.5-1.62,5.2-2.33,0-1,.05-1.92.05-2.68a6.15,6.15,0,0,0-.21-1.8,2.36,2.36,0,0,0-1-1.19q-6.15,4.6-7.89,6.12a5,5,0,0,1-2.65,1.51,2.75,2.75,0,0,1-1.43-.32,10.29,10.29,0,0,1-1.62-1.35,13.09,13.09,0,0,1-1.49-1.59,1.73,1.73,0,0,1-.39-.87c0-.22.24-.32.74-.32a3.48,3.48,0,0,0,1.85-.8,67.36,67.36,0,0,1,5.78-3.89,56.21,56.21,0,0,1,5-2.52,17.8,17.8,0,0,0,1.59-4.24,16.42,16.42,0,0,0,.58-3.53,3.94,3.94,0,0,0-.16-1.45,11.11,11.11,0,0,1-1-4.51,7.65,7.65,0,0,1,.4-2.25c.27-.83.53-1.25.8-1.25s.53.38.82,1.12a8.44,8.44,0,0,0,1.59,3.12c2.54.15,3.81-.08,3.81-.68,0-.22-.16-.46-.47-.75a8.45,8.45,0,0,1-1.54-1.59c0-.1,0-.16.11-.16a1.31,1.31,0,0,1,.37.11,10.11,10.11,0,0,0,3.65,1.06,4.44,4.44,0,0,1,2.79,1.14,2.87,2.87,0,0,1,1.14,2,1.54,1.54,0,0,1-1.12,1.46,6.83,6.83,0,0,0-2.49,2.2,1.63,1.63,0,0,1-1.35.53,4.87,4.87,0,0,1-2.46-1.06,16,16,0,0,1-.85,4.45,7.52,7.52,0,0,0-.43,2.44,14.87,14.87,0,0,0,4.4-1.43,4.18,4.18,0,0,1,4.27.34A4.36,4.36,0,0,1,442.6,282a17.43,17.43,0,0,0,5.14-5.35,2.36,2.36,0,0,1,2.07-1.32,1.31,1.31,0,0,1,1.38.84,5.14,5.14,0,0,0,2.38,2.39,1.74,1.74,0,0,1,.85,1.67,5.06,5.06,0,0,1-.48,2.2,35,35,0,0,0-1.35,3.84A31.45,31.45,0,0,1,450.39,291.62Zm-20.88,3.5-3.66,3.76a4,4,0,0,0,1.78.43,8.45,8.45,0,0,0,1.67-.16,3.81,3.81,0,0,0,.32-1.75C429.62,296.62,429.58,295.86,429.51,295.12Zm11.4-11.24a4.44,4.44,0,0,0-2.07-.37,19.83,19.83,0,0,0-6.73,1.38,2.63,2.63,0,0,1,1.64,2.76,5.37,5.37,0,0,1-.58,2.33,4.29,4.29,0,0,0-.32,1.69,6.48,6.48,0,0,0,1.51.16,1.72,1.72,0,0,0,1.25-.42,5.63,5.63,0,0,0,.95-1.7,5.2,5.2,0,0,0-1.35.16,3.28,3.28,0,0,1-.72.16c-.1,0-.16,0-.16,0,0-.21,1.1-.92,3.29-2.12A14.35,14.35,0,0,1,440.91,283.88Zm4.5,9.49c-2.79-2.54-5.12-3.82-7-3.82a5.53,5.53,0,0,0-1.06.11,4.58,4.58,0,0,0-.47,1.91,1.73,1.73,0,0,0,.66,1.43,4.26,4.26,0,0,1,.95,1,2,2,0,0,1,.3,1.11,12.47,12.47,0,0,1-.11,1.51,8.5,8.5,0,0,0,1.27.11Q442.61,296.71,445.41,293.37Zm2-3.6q2.65-6.11,2.65-9.86c0-.57-.07-.85-.21-.85s-.3.18-.48.53a32.71,32.71,0,0,1-2.06,3.34,5.6,5.6,0,0,1-1.22,1.32,1.86,1.86,0,0,1-1,.27,10.09,10.09,0,0,0-4.27.87,4.52,4.52,0,0,0-2.46,2.36,18.34,18.34,0,0,1,2.81-.26,9.13,9.13,0,0,1,3,.71A17.07,17.07,0,0,1,447.37,289.77Z" transform="translate(-255.14 -259.07)"/><path class="cls-2" d="M476.52,314.36v-49h4.14v49Z" transform="translate(-255.14 -259.07)"/><path class="cls-1" d="M524.54,289.5a6.29,6.29,0,0,1-1.14,1.25,14.1,14.1,0,0,0-1.51,1.51c-1.06.77-2.86,1.89-5.41,3.34-.28.14-.61.31-1,.53a14.37,14.37,0,0,1-3,1.32c-1.31.46-2.17.78-2.6.95a.16.16,0,0,0,0,.11,1,1,0,0,0,.27-.05,5.6,5.6,0,0,1-1.48.63s-.06,0-.06,0,0-.05-.1-.05,0,.07-.22.21l-1.27.32a1.12,1.12,0,0,0-.39.13,1.21,1.21,0,0,1-.4.13c-.07,0-.12,0-.14-.08s-.06-.08-.13-.08l-1.59.48a5.25,5.25,0,0,1,.8-.37.49.49,0,0,0-.16-.27c-2.4.5-3.64.75-3.71.75A.37.37,0,0,1,501,300l.47-.16a.51.51,0,0,0-.37-.1l-.55.1a3.56,3.56,0,0,1-.77.11c-3.43.11-5,.16-4.56.16q.11,0-.48-.21a4.87,4.87,0,0,1-.84-.27,4.55,4.55,0,0,0-.8-.79,2.34,2.34,0,0,1,.32-1.38c-.57-.32-.85-.64-.85-.95a.84.84,0,0,1,.16-.3.69.69,0,0,0,.16-.34c0-.11-.2-.26-.58-.48a.55.55,0,0,1,.42.11.41.41,0,0,0,.16-.16.35.35,0,0,1,.16-.16s-.09-.12-.27-.26a.31.31,0,0,1,.27-.16c-.11,0,.16.1.79.32,0,0,.08-.05.14-.14a.59.59,0,0,1,.13-.18c.14,0,.24.09.32.26a5.59,5.59,0,0,0,.74-.26,2.52,2.52,0,0,1,.69.45,2.24,2.24,0,0,0,.69.45.56.56,0,0,0,.31-.11q-.31-.48-.9-1.32a3.21,3.21,0,0,1,.61.34,1.63,1.63,0,0,0,.56.29h.95c.29,0,.37.06.27.06.28,0,.42-.27.42-.8,0-.21-.42-.46-1.27-.74a8.65,8.65,0,0,0,1.27-.27.9.9,0,0,0,.35-.68c.05-.36.13-.89.23-1.59l.27-2h.11v.05l.15-.1c-.21-.35-.31-.5-.31-.43a1.12,1.12,0,0,1,.18-.47,1.46,1.46,0,0,0,.19-.37l.47-4.83s0-.05-.1-.16l-.27.85.69-6c.11,0,.18,0,.21-.1,0-.53.11-1.33.22-2.39.07-.85.23-2.17.47-4a.5.5,0,0,0-.26-.11c-.14,0-.32.13-.53.37q-.17,2.38-.48,6.79c0,.46-.39,2.88-1.06,7.26a1.45,1.45,0,0,1-.16-.32,2.21,2.21,0,0,0-.21.64l-.16.05v-.27q0-.42.9-5.88c.28-1.7.51-4.13.69-7.31l-.05-.27a10.49,10.49,0,0,0,.21-1.27.82.82,0,0,0-.16-.42c-.28.31-.49.47-.63.47a.15.15,0,0,1-.16-.08c0-.05-.08-.08-.11-.08-.64,0-.92,0-.85.06a2.45,2.45,0,0,0,.64-.11.29.29,0,0,0-.32-.26.47.47,0,0,1,.21-.38.5.5,0,0,0,.06.38.37.37,0,0,0,.05-.22c.17,0,.4-.16.69-.47a.58.58,0,0,0-.48-.22s-.05.08-.26.22a2.93,2.93,0,0,1-.53.16c-.18.21-.43.53-.75.95a3,3,0,0,0-.53.21c-.24,0-.4-.46-.47-1.27l1.64-.48a.36.36,0,0,0,.26-.37c0-.35-.1-.53-.31-.53a.17.17,0,0,0-.16.11.31.31,0,0,1-.16-.27.72.72,0,0,1,.13-.32q.14-.21.21-.18c.06,0,.28-.13.67-.45a1.33,1.33,0,0,0,.63-.32,20.62,20.62,0,0,1,3.23-2.44c.71-.28,1.7-.69,3-1.22a15.77,15.77,0,0,1,6-1.16,9,9,0,0,1,2.71.42,10.74,10.74,0,0,1,4,2c-.36-.22-.52-.32-.48-.32-.11,0-.16.09-.16.26q-3.76-2.11-6.36-1.91a.17.17,0,0,1-.13-.08.36.36,0,0,0-.24-.07l-.32.05a6.13,6.13,0,0,1-.74.05,1.41,1.41,0,0,0-.4.08,1.39,1.39,0,0,1-.34.08,12.15,12.15,0,0,0-4.83,1.54c0,.07,0,.1.06.1a8.24,8.24,0,0,0,1.11-.39,11.27,11.27,0,0,1,1.06-.4h.11s0,.05,0,.05c-.18,0,.32-.14,1.48-.42a10.93,10.93,0,0,1,2.39-.21,12.79,12.79,0,0,1,4,.68,18.45,18.45,0,0,1,3.5,1.75,6.47,6.47,0,0,1,2.6,2.76,2.28,2.28,0,0,1,.53.48c.14.35.33.9.58,1.64,0,.21,0,.54.08,1s.08.57.08.4a2.71,2.71,0,0,1-.11.37c.07,1.34-1.37,3.14-4.34,5.4.32.15.81.36,1.48.64a4,4,0,0,1,.58.53,1.24,1.24,0,0,0,.48.05.5.5,0,0,1,0,.27l.74.63a5.52,5.52,0,0,1,1.33.91c.42.67.74,1.2,1,1.59a5.25,5.25,0,0,1,.74,1.74,10.49,10.49,0,0,1,.21,1.44,2,2,0,0,1-.1.6q-.11.34-.27.93c0,.25-.09.62-.16,1.12s-.44.9-.79,1.64c-.07,0-.23.18-.48.53-.14,0-.41.16-.79.58s-.52.57-.8.85a2.91,2.91,0,0,1-1.27.74,1.31,1.31,0,0,1-.32.32q-.27.21-1.8,1.11l-2.6,1.54c-.46.21-1.06.48-1.8.79,0,0-.16.11-.37.32v.32a15.8,15.8,0,0,0,2.07-1,10.08,10.08,0,0,1,2-1c.07,0,.1,0,.1.08s0,.08.06.08a15.24,15.24,0,0,0,2.06-1.22c-.07,0,0,.08.16.26a11.63,11.63,0,0,1,1.46-1.06Q521.31,292.21,524.54,289.5Zm-29.68,9.28-.42-.16v.1l.05.16Zm2-12.51a.57.57,0,0,1-.37.21c-.35,0-.71-.35-1.06-1.06a3.34,3.34,0,0,1-.42-1.17.85.85,0,0,1,.58-.79l.64.1a1.37,1.37,0,0,0-.61.19.6.6,0,0,0-.35.56,2.38,2.38,0,0,0,.8,1.53A2.2,2.2,0,0,0,496.87,286.27Zm.37-13.68c0,.5-.35.74-1.06.74a1.85,1.85,0,0,1-.74-.1c-.21-.39-.32-.55-.32-.48a1.32,1.32,0,0,1,.32-.74,1.06,1.06,0,0,1,.9-.42C496.94,271.59,497.24,271.92,497.24,272.59Zm7.48,27.93c0,.32-.45.65-1.35,1a7.53,7.53,0,0,1-1.67.51h-.32c-.36,0-.53-.16-.53-.48s.17-.46.53-.74c0,0-.07-.05-.21-.05a11.56,11.56,0,0,0-2.6.26l-.77.43a2.18,2.18,0,0,1-1,.26h-.74c-.53-.11-.69-.16-.48-.16,0-.14-.09-.42-.16-.85h3.13a.31.31,0,0,0,.21-.08.37.37,0,0,1,.21-.08s.08,0,.14.08a.22.22,0,0,0,.18.08,2.42,2.42,0,0,0,.37-.05,4.27,4.27,0,0,1,.59-.05l1.74-.06c-.17.18-.44.46-.79.85,0,0,0,.09.13.16a.54.54,0,0,0,.35.11h.42l.16-.16c.42-.11.87-.24,1.35-.4a1.68,1.68,0,0,0,1-.71C504.68,300.37,504.72,300.42,504.72,300.52Zm-8-31.95h-.43a1.23,1.23,0,0,0-.21-.38l.21-.21C496.66,268.16,496.8,268.35,496.77,268.57Zm1.85.15-.26.16-.11-.1.32-.16Zm1.43,3.18a1.29,1.29,0,0,1-.74.43c-.07,0-.1,0-.1-.05a.05.05,0,0,0-.06-.06.31.31,0,0,0-.21.11.29.29,0,0,1-.21.1h-.37v-.26a6.16,6.16,0,0,1,.53-.95h.26A.82.82,0,0,1,500.05,271.9Zm-.79,13.41-.21,1.33h-.11l.21-1.33Zm.1-.95h-.15l-.06.37h.11Zm.06-.32-.11-.05-.1.21.1.05Zm.74-.58-.16.85h-.16l.16-.85Zm.32-1.27V282h-.16v.22Zm.16-1v-.32h-.16v.32Zm.16-1.59v-.37h-.16v.37Zm.05-.42v-.53h-.11v.53ZM508,298.3l-.18-.19a.34.34,0,0,1-.13-.24l-5.89,1.81v.1l1.41,0c.05,0,.52-.12,1.4-.37a1.65,1.65,0,0,0,.58-.27l.22.16-.16.21a21.64,21.64,0,0,1,2.7-.9C507.84,298.56,507.86,298.48,508,298.3Zm-2.7-3-.05-.11-.16.11v.11Zm.16,7.63a.44.44,0,0,0-.32.11c0-.21.07-.32.21-.32A.68.68,0,0,1,505.46,303Zm15.37-18.55a.15.15,0,0,0-.11.06.23.23,0,0,1-.16,0,.23.23,0,0,1-.18-.13.23.23,0,0,0-.19-.14c-.07,0-.09,0-.05.06H520c-.17,0-.28-.23-.31-.69a4.86,4.86,0,0,0-3.5-1.65c.07.11.16.25.26.43a.47.47,0,0,0,.16,0s0,.06.11.07a.13.13,0,0,1,.1.14c0,.32-.24.47-.74.47a.75.75,0,0,1-.24-.08.79.79,0,0,0-.29-.07,26.27,26.27,0,0,0-3.23-.22c-.07,0-.7.14-1.88.4s-1.8.4-1.86.4-.31,0-.77.08l-.79.08a.45.45,0,0,1-.37-.21l.26-.27a12,12,0,0,1,1.2-.11.53.53,0,0,0,.5-.26H508a1.83,1.83,0,0,0-.47.11,2.72,2.72,0,0,1-.43.1,7.61,7.61,0,0,1-1-.05q-.59,4.35-.75,7.26c0-.11,0,0,.06.37a10.86,10.86,0,0,0-.16,2.33v.59c.77-.32,1.18-.48,1.22-.48s.09,0,.08.05,0,.05.08.05a1.39,1.39,0,0,1,.34.08,1,1,0,0,0,.34.08,6.16,6.16,0,0,0,.8-.37c.18-.39.37-.58.58-.58a.52.52,0,0,1,.24.08.52.52,0,0,0,.24.08,21.51,21.51,0,0,1,2.91-1.17l4-1.75a.58.58,0,0,0,.11-.26l-5.88,2.38h-.48c-.18,0-.27-.08-.27-.26q3-1.17,8.75-3.61c1.09-.49,1.61-.93,1.54-1.32a.31.31,0,0,1-.22-.11c.22-.24.51-.58.9-1Zm-14.89,10.76v-.1h-.22v.1Zm.26-.16-.05-.1-.21.1v.11Zm2.17-.74a.34.34,0,0,0-.05-.16,14.34,14.34,0,0,1-1.8.69C506.87,294.73,507.49,294.55,508.37,294.27Zm10-23.64a2.55,2.55,0,0,0-.58-1.16,4.54,4.54,0,0,0-.8-.59c0,.07-.07.18-.21.32a3.66,3.66,0,0,0-1.33-.93,5.26,5.26,0,0,0-1.43-.61h-.37s.07.13.21.27a1.07,1.07,0,0,1-.31-.08,1.43,1.43,0,0,0-.27-.08.25.25,0,0,0-.16.05H513a.22.22,0,0,1-.19-.1.24.24,0,0,0-.19-.11,21.73,21.73,0,0,0-3.71.48c-.24.07-.86.32-1.85.74V269c0,.07.05.44.16,1.12s.16,1,.16,1.11l-.53,4.93h.9a10.94,10.94,0,0,0,1.11-.27c.67-.17,1-.26,1.11-.26s.1,0,.08.08,0,.08.08.08c.32,0,.46,0,.43-.06a6.51,6.51,0,0,1-2,.8q-.9.21-1.86.48a.68.68,0,0,0,.11.21l.24-.06.23-.05a1,1,0,0,1,.3.08,1,1,0,0,0,.23.08,5.59,5.59,0,0,1,1.28-.26,24.82,24.82,0,0,0,4.5-1.59c.25-.11.9-.5,2-1.17a10.27,10.27,0,0,0,2.18-2,1.35,1.35,0,0,0,.31-.69,2.24,2.24,0,0,0,.06-.58c0-.07.08-.15.13-.24A.51.51,0,0,0,518.34,270.63Zm-10.18.11-.05.05-.11-.1.06-.06Zm1.38,5.3-.05-.11-.21.11v.1Zm1.06,17.33a3.7,3.7,0,0,0-.79.11c0,.07-.09.17-.27.31A2.44,2.44,0,0,0,510.6,293.37Zm1.17-.53-.43.26h.27a.29.29,0,0,0,.21-.1C511.85,292.89,511.84,292.84,511.77,292.84Zm.84-.42v-.16h-.26v.16Zm1.33-.43c-.32.07-.71.18-1.17.32q0-.06.27.21A4,4,0,0,0,513.94,292Zm.26,2.12h-.26a11.54,11.54,0,0,0-1.06.58h.42a.36.36,0,0,0,.24-.13c.09-.09.15-.13.19-.13s.09,0,.08.05,0,.06.08.06S514.2,294.39,514.2,294.11Zm.11-26,0,.11-.37-.16.05-.11Zm1.8,8.59a2.18,2.18,0,0,0-.85-.11l.59.32S516,276.87,516.11,276.73Zm.74-.48a1.54,1.54,0,0,0-.58-.11c.18,0,0,.08-.63.22a1.16,1.16,0,0,0,.63.26C516.17,276.62,516.36,276.5,516.85,276.25Zm-1,5.72v-.15h-.21V282Zm.37,11.45v-.1h-.21v.1Zm.48-4.29h-.21a.13.13,0,0,0-.14.08c0,.05,0,.08-.08.08A.57.57,0,0,0,516.75,289.13Zm.16,4v-.32l-.59.21A1.35,1.35,0,0,1,516.91,293.16Zm1.85-18.61-.42-.1a12.24,12.24,0,0,1-1,.85,4.54,4.54,0,0,1-.79.47,1.52,1.52,0,0,0-.06.27,1.19,1.19,0,0,0,.37.1,3,3,0,0,0,1-.68A7.15,7.15,0,0,0,518.76,274.55ZM517.33,277l-.05-.1-.16.1v.11Zm.58-.47-.1-.11-.27.26.11.11Zm.27,15.58h-.27a1.32,1.32,0,0,0-.31.26A.72.72,0,0,0,518.18,292.1Zm-.21-23-.27-.16-.05.1.26.16Zm3.6,3.33a3.23,3.23,0,0,0-.21-.74,9.12,9.12,0,0,1-1,2.07.31.31,0,0,1,.11.21l-.16-.05-.16.16a3,3,0,0,1-.9,1.16L518,276.36a7.62,7.62,0,0,0,1.11-.64l1.49-1.48A3,3,0,0,0,521.57,272.43Zm-.74,13.31a.56.56,0,0,0-.11-.27l-.39.43c-.23.24-.35.4-.35.47v.43C520.3,286.8,520.58,286.44,520.83,285.74ZM520.62,269c-.46-.21-.62-.32-.48-.32V269c.21.25.34.37.37.37Zm-.16,2.28h-.11l-.1.26.1.06Z" transform="translate(-255.14 -259.07)"/><path class="cls-1" d="M562.22,296.39c-.35.07-.86.21-1.54.42-.35,0-.86.11-1.53.22s-1.54.6-2.81,1.06a14.08,14.08,0,0,1-2.65.63,24.67,24.67,0,0,0-3.71.85c-1.27.42-2.56.83-3.87,1.22a.46.46,0,0,1-.27.26,3.72,3.72,0,0,1-.79.22h-.11l-.1.1a1.84,1.84,0,0,0,.69.11l1.14-.32a14.56,14.56,0,0,1,1.75-.42c.44-.07,1.15-.22,2.14-.43.07,0,.11.09.11.27a3.86,3.86,0,0,1-.64.42,7.74,7.74,0,0,1-3,1.06c-.11,0-.15,0-.13-.05s0-.05-.08-.05a.66.66,0,0,0-.32.15.62.62,0,0,1-.32.16c-.95.32-2.44.78-4.45,1.38-.71.18-1.85.57-3.44,1.17-1.42.53-2.16.79-2.23.79s-.11,0-.11-.05,0-.05-.1-.05a5.41,5.41,0,0,0-2.55.84,2.7,2.7,0,0,1-.47.69l-.85.32a.54.54,0,0,0,0-.21,1.34,1.34,0,0,0-.63-.16c-.15,0-.22.09-.22.27l-.1-.11a.69.69,0,0,0-.64-.27c-.1,0-.23.2-.37.59a1.05,1.05,0,0,0-.11-.59h-.42c-.07.22-.14.41-.21.59a.62.62,0,0,1-.64.42q-.63,0-.63-.9a2.46,2.46,0,0,1-1.06-.21,1.14,1.14,0,0,0-.19.82,1.09,1.09,0,0,1-.29.87,1.12,1.12,0,0,1-.34-.37c-.16-.21-.28-.31-.35-.31s-.11,0-.13,0a.14.14,0,0,1-.13.05c-.25,0-.39-.18-.43-.53a2.88,2.88,0,0,1,0-1.11l0-.85a.45.45,0,0,0-.1-.21.56.56,0,0,1-.11-.27,2.83,2.83,0,0,1,.21-.47.64.64,0,0,0,0-.59c-.14,0-.29-.08-.45-.13a.29.29,0,0,1-.24-.29c0-.07.3-.34.9-.8,0-.53.07-1.36.11-2.49,0-.14.21-1.75.53-4.82q.38-4,.37-6.15l.85-17.54a7.66,7.66,0,0,1,.74-3.82h.32a.44.44,0,0,1,.1.32.79.79,0,0,1-.1.32.9.9,0,0,1-.16.26,8.37,8.37,0,0,0-.26,1.65,1.21,1.21,0,0,0,0,.47.64.64,0,0,0,.21-.42c0-.35,0-.53,0-.53a9.45,9.45,0,0,1,.53-1.35,6.18,6.18,0,0,0,.43-1,.53.53,0,0,0-.11-.27.54.54,0,0,1-.11-.26,5.45,5.45,0,0,1-.58-.59.87.87,0,0,1-.32.06,1.1,1.1,0,0,1-.79-.4,1.13,1.13,0,0,1-.37-.72c0-.14.13-.34.39-.61a1.13,1.13,0,0,1,.72-.39.58.58,0,0,1,.48.31l.37.8c.18.35.39.55.64.58l.47.64s.05-.06.05-.16c0,.07,0,.12.14.16a2.36,2.36,0,0,1,.37.18.88.88,0,0,0,.34.14.72.72,0,0,0,.53-.32,2.83,2.83,0,0,0,.59.32l.21-.16c0,.14,0,.23,0,.26l.16-.16c.25.21.35.41.32.59a3.22,3.22,0,0,1,.69.68c.28.36.69.94,1.22,1.75,0,.07.14.52.31,1.33a18.87,18.87,0,0,0,0,3.18l-.9,11.29a28.32,28.32,0,0,1-.79,7.95,1.56,1.56,0,0,1,0,.53,1.32,1.32,0,0,1-.21.26,8.22,8.22,0,0,1-.69,1.86v.47h.47a1.33,1.33,0,0,0,1.06-.63,1.4,1.4,0,0,1,.37.26H535a.23.23,0,0,1,0,.32,1.18,1.18,0,0,0,.32.43,2.32,2.32,0,0,0-1.54.26.41.41,0,0,1-.11.21.47.47,0,0,0,.32.16c.11,0,.23-.1.37-.32a4.15,4.15,0,0,0,1-.16,5.81,5.81,0,0,1,.74-.15.92.92,0,0,1,.29.05,1.45,1.45,0,0,0,.29.05q-.52,0,4.51-1.54l2.75-.47,2.6-.64a9.16,9.16,0,0,1,2.7-.26v.16a3,3,0,0,1-1.43.53,11.06,11.06,0,0,0-1.69.47c-.64.14-1.54.37-2.71.69-.14.11-.37.3-.68.58a.27.27,0,0,0,.21.11c.07,0,.69-.15,1.88-.45s1.83-.45,1.93-.45,0,.05.11.16a.72.72,0,0,1,.48-.27l.15.16c.11-.07.27-.17.48-.32.85-.21,1.29-.31,1.33-.31a.17.17,0,0,1,.16.1.16.16,0,0,0,.15.11c.08,0,.76-.13,2.07-.37.28-.07.43-.16.43-.27a1,1,0,0,0,.42.06,30.76,30.76,0,0,1,3.07-.59,6.44,6.44,0,0,1-2.12.59.23.23,0,0,0,0,.31.31.31,0,0,0,.11-.21,1,1,0,0,1,.58.11,10.86,10.86,0,0,1,3.23-.48,5.1,5.1,0,0,0,1.09-.19,7.91,7.91,0,0,1,.87-.18.63.63,0,0,1,.22.05.53.53,0,0,0,.26.06.13.13,0,0,0,.13-.08c0-.06.06-.08.14-.08h.58c0-.07-.07,0-.21.31a38.13,38.13,0,0,0-6.84,1.65h.05c.32,0,.89-.14,1.7-.32s1.25-.27,1.32-.27a.6.6,0,0,1,.24.06.76.76,0,0,0,.19.05,13.82,13.82,0,0,0-1.65.37c.32.14.43.21.32.21q.27,0,5.41-.79a.44.44,0,0,0,.1.32c-.56.14-1.41.37-2.54.69.14.14.42.1.85-.11l.21.21a3.72,3.72,0,0,1,1.91-.37Zm-33.6-33.55h-.69v-.37a.69.69,0,0,1,.58-.21A3.11,3.11,0,0,1,528.62,262.84Zm2.28,2.86a.56.56,0,0,1-.27.11.21.21,0,0,1-.21-.13.18.18,0,0,0-.16-.14c-.1,0-.16,0-.16.06s0,0-.1,0c-.29,0-.43-.28-.43-.85a.75.75,0,0,1,.19-.53.8.8,0,0,0,.18-.26.82.82,0,0,1,.64.53c.18.49.28.77.32.85Zm2.12-2.38h-.64v-.58l.32-.32H533Zm.37,34.82V298h-.8v.16Zm4.24-32.65c0,.21-.19.43-.58.64l.37.37a.33.33,0,0,1-.27.16c-.21,0-.46-.21-.74-.64a2.44,2.44,0,0,1-.42-.79c0-.53.21-.8.63-.8.21,0,.43.15.67.45A1.58,1.58,0,0,1,537.63,265.49Zm2.07,26.82h-.32a.52.52,0,0,0-.11-.21C539.55,292.1,539.7,292.17,539.7,292.31Zm5.4,10.07v-.16h-.26v.16Zm.37-.11v-.16h-.37v.16Zm1.81-.58v-.16H547v.16Zm4.13-5.19v-.16l-.42.1v.16Zm1.8-9-.1.47H553l.1-.47Zm0,.84-.16.27-.1-.05.1-.22Zm2.71.59h-.54a.71.71,0,0,0,.11-.27S555.63,288.78,555.92,288.92Zm3,.37-.43.16a7,7,0,0,1-1,.85,3.78,3.78,0,0,1-1.43.68,1.23,1.23,0,0,1-.48-.26q.42-.32,1.38-.9l-.32-.27a9.17,9.17,0,0,1,.9-.21,1.17,1.17,0,0,0,.74-.53c0-.1.16-.18.37-.21,0,0-.05.11-.16.21a.92.92,0,0,0,.22.24C558.88,289.14,558.94,289.22,558.94,289.29Zm-1.44-1-.1.27-.16-.05.11-.22Zm.69.27a.32.32,0,0,1-.37.37v-.32l.16.11Zm.22.74-.06-.16-.21.11v.16Zm3.81,6.68h-.63v-.16h.63Z" transform="translate(-255.14 -259.07)"/><path class="cls-1" d="M567.47,278.69a4.92,4.92,0,0,0-.69,1c.07,0,.16-.09.26-.27-.14.28-.24.42-.31.42s-.07,0-.11-.1a.73.73,0,0,0-.1.13l-.11.13a.2.2,0,0,0,.21,0,1.58,1.58,0,0,1-.32.22c.11.31,0,.47-.21.47-.07,0-.09,0-.05-.05s0-.11,0-.11-.18.09-.21.27,0,.23,0,.16a1.63,1.63,0,0,1-.42.26c.07.07.12.11.15.11-.49.88-.91,1.69-1.27,2.44a.61.61,0,0,0-.42.21.67.67,0,0,1,.05.26.18.18,0,0,0-.21-.05c0,.07,0,.11.16.11v.26c-.11.11-.3.28-.59.53a.35.35,0,0,0,.22.11v.26a.3.3,0,0,0-.22.06q-.15.36-.42,1.11c-.25.74-.56,1.84-.95,3.28a16.66,16.66,0,0,0-.27,3.08,31.17,31.17,0,0,0,.21,3.71,2.12,2.12,0,0,0,.14.48,2.3,2.3,0,0,1,.13.47,3.13,3.13,0,0,1-.37.53,4.29,4.29,0,0,1-.37-.9,13.37,13.37,0,0,1-.37-3v-2.7a3.12,3.12,0,0,1,.05-.4,4.55,4.55,0,0,0,0-.5,19.8,19.8,0,0,1,2.65-7.84A17.37,17.37,0,0,1,565,281a15.6,15.6,0,0,1,2.17-2.44A.44.44,0,0,0,567.47,278.69Zm19.82,5.46-.74,5.3a17.63,17.63,0,0,1-3.13,7.31c-.21.18-.51.44-.9.8l-2.7,3c-.14.17-.39.49-.74.95v-.32a1.94,1.94,0,0,0-.16.59.35.35,0,0,1-.16-.06,9,9,0,0,1-3.55,3.45,1.58,1.58,0,0,0-.72.08,3.07,3.07,0,0,1-.71.13,4.46,4.46,0,0,1-.8,0h-.1a5.9,5.9,0,0,0-.67.21,6.16,6.16,0,0,1-.66.21,11.32,11.32,0,0,1-4.11-.95,14.32,14.32,0,0,1-4-2.33.39.39,0,0,1,.48,0c-.07,0-.1-.08-.1-.32.49.24.68.37.58.37.07,0,.1,0,.1-.05h.06a6.63,6.63,0,0,1,1.19.68,7.15,7.15,0,0,0,1.19.69,1.92,1.92,0,0,0,.59-.1,3.13,3.13,0,0,0-1.54-.9l-.27.05a6.64,6.64,0,0,1-1.16-1.06c.07-.11.19-.12.37-.05h0a.3.3,0,0,1,.11.31c.17.25.35.38.53.38H566a.25.25,0,0,0,0-.16s-.71-1-2.12-2.81a.52.52,0,0,0-.43-.21c-.1-.46-.28-1.12-.53-2a.47.47,0,0,0,.22,0A1.12,1.12,0,0,0,563,297c-.14-1.1-.26-2.3-.37-3.61-.07-.1-.12-.16-.16-.16s-.14.2-.1.27a1.21,1.21,0,0,1,.08.77,1.1,1.1,0,0,0,.08.77.89.89,0,0,1-.11.37c-.07-.22-.16-.52-.26-.9-.08-.78-.11-1.36-.11-1.75,0-.07,0-.38.08-.93a10.3,10.3,0,0,1,.16-1.17q.07-.35.18-.87c.07-.35.16-.85.27-1.49.18-.45.58-1.55,1.22-3.28a6.25,6.25,0,0,1,1-1.43A3,3,0,0,1,565,283c.07-.07.69-.78,1.85-2.12a9.44,9.44,0,0,0,1.65-2.6s0-.07-.06-.1l-.58.42a5.13,5.13,0,0,0,1.17-1.22l-.11-.1c-.07.07-.32.26-.74.58a2.27,2.27,0,0,0,.69-.69.61.61,0,0,0,.47-.37c.78-1.45,1.33-2.17,1.65-2.17.07,0,.17.07.32.21a14.93,14.93,0,0,0,.79-1.49c.18-.24.41-.6.69-1.05l.16.1a.88.88,0,0,0,.37-.26c-.07.21-.2.56-.37,1.06q.52-.48,1.11-.93a2.18,2.18,0,0,1,1.11-.5l.16.21-.16.16c-.14,0-.21.05-.21.16l-.21-.16a1.12,1.12,0,0,0-.58.55.72.72,0,0,0-.11.72,3.71,3.71,0,0,1,2.23-1.49l.1.16.16-.16h.11c-.07,0-.11.15-.11.32a1.66,1.66,0,0,0,.53.06,3.65,3.65,0,0,0,1.91-.91,1,1,0,0,1,.56.27.71.71,0,0,1,.34.53c0,.07-.18.26-.53.58a1.09,1.09,0,0,0,.58.32c.07,0,.11,0,.11-.05h.05l1.43,1.06h.22c-.11-.11-.16-.18-.16-.21s0,0,.26.1l.21-.16c.11,0,.16.14.16.32a.16.16,0,0,0-.1.05l1.27.64a5.81,5.81,0,0,0,1.11,1.54h.11s0-.06.1-.06c-.1,0,.09,0,.59.11l.31.21v.32c-.17.6-.26.81-.26.64a1,1,0,0,0,.32.68.32.32,0,0,0,.05-.21c0,.25,0,.37-.11.37a8.66,8.66,0,0,1,.43,2.23,2.12,2.12,0,0,1,.21.58q.21,0,.21-.69c0,.36.11.87.22,1.54a2.36,2.36,0,0,1,.29.53,4.72,4.72,0,0,1,.29,1.17A2.94,2.94,0,0,0,587.29,284.15Zm-24.8,14.47h-.11l-.1-.16.1-.06Zm.16.37h-.11l-.11-.21.11-.06Zm.05-2.76h-.11l-.1-.21h.1Zm0,.27h-.1l-.06-.16.11-.06Zm.21,3-.31-.21-.06.05.32.26Zm-.1-2.6h-.16v-.26h.16Zm3.71-24.17a5.48,5.48,0,0,0-.48,1.06h-.42q-.17,0-.9-1.11a2.83,2.83,0,0,1-1.06.53.94.94,0,0,1-.59-.27c-.21-.17-.32-.33-.32-.47,0-.78.22-1.22.64-1.33.5.25.67.37.53.37.07,0,.11,0,.11,0s0-.05.1-.05a1,1,0,0,1,.74.45q.38.45.54.45a.48.48,0,0,0,.18-.11.4.4,0,0,1,.24-.1Q566.57,272.12,566.57,272.75Zm-3.13,27.93c-.11-.17-.28-.46-.53-.85a3.21,3.21,0,0,1,.53.59Zm.53-10.81a7.29,7.29,0,0,1-.21,1.8,1.5,1.5,0,0,1-.32.53,1.57,1.57,0,0,1-.16-.63v-1.12a1.85,1.85,0,0,1,.43-.26c.1-.42.19-.76.26-1Zm-.53,3.82h-.16v-.37h.16Zm.27,7.21a.52.52,0,0,0-.22.1,1.12,1.12,0,0,1,0-.21Zm-.06-10v-.37h-.1v.37Zm1.17,10.71a5.85,5.85,0,0,1-.8-.43.18.18,0,0,1-.15.06,3.69,3.69,0,0,1,.53.53A.54.54,0,0,1,564.82,301.64Zm-.74-1.7-.11-.16-.05.11.1.1Zm1.53-15.1h-.1a6.54,6.54,0,0,0-.69,1.74C565,286.2,565.26,285.61,565.61,284.84Zm.11-.27-.11-.05-.1.21.1,0Zm.27,10a.67.67,0,0,1-.32-.37l.1-1.8a9.13,9.13,0,0,0,.11,1.06A8.78,8.78,0,0,1,566,294.59Zm0,1.16-.27-.42a.36.36,0,0,0,0,.21v-.37c0,.07.12.11.27.11A1.46,1.46,0,0,1,566,295.75Zm-.16.32h-.16v-.42h.16Zm15-13.25a.6.6,0,0,0-.08-.29.39.39,0,0,1-.08-.18,1.39,1.39,0,0,0-.22-1.06.81.81,0,0,1-.68,0,.16.16,0,0,1-.11.15l-.11-.1c.36-.18.48-.27.37-.27a.2.2,0,0,1,.16.06h.06a.46.46,0,0,1-.11-.22.73.73,0,0,0,.26-.31s0-.08-.13-.14a.59.59,0,0,1-.18-.13l-.21.16-.06-.05a3.52,3.52,0,0,0-.1-.74.37.37,0,0,1-.22.05h-.15a.15.15,0,0,0-.11-.05.88.88,0,0,1,.37.26v.27a2.91,2.91,0,0,1-.74.42.31.31,0,0,1-.21-.11.48.48,0,0,0,.1-.26c0-.11-.37-.3-1.11-.58a.21.21,0,0,1,.05.15c-.07.15-.16.22-.26.22A1.44,1.44,0,0,1,577,280a1,1,0,0,0-.34-.08,4.82,4.82,0,0,0-2.6.9.54.54,0,0,0,0,.21,1.7,1.7,0,0,1,.69-.32.18.18,0,0,1,.05.11l-.74.29a.85.85,0,0,0-.53.56l-.05.1a.23.23,0,0,0-.22.11l.16.1c-.28.11-.55.66-.79,1.65-.11.32-.16.42-.16.32a.36.36,0,0,1,.16.31l.74-.47.11.16v.26a5.11,5.11,0,0,0-.27.64c-.21.84-.5,2-.85,3.55a.59.59,0,0,1,.05.21,0,0,0,0,1-.05-.05s0-.06-.1-.06-.15.15-.22.45a4.89,4.89,0,0,1-.15.56c0,.18-.09.35-.38.53v-.26c0-.15.22-1.52.64-4.14,0-.25.07-.58.11-1-.64,1.24-.85,2-.64,2.39l-.11.11a.18.18,0,0,0-.15-.06v.69c.1.11.14.18.1.21a2,2,0,0,1-.21-.26,1.76,1.76,0,0,1-.32.1v.27q.21-.21.21-.27v.43c-.07-.07-.14-.05-.21,0,.11,0,.19,0,.27.16a1.78,1.78,0,0,1-.43.21v.48c0,1.77-.05,2.61-.05,2.54a1.4,1.4,0,0,0-.16.22,16,16,0,0,0-.16-1.91,2.38,2.38,0,0,1-.08.47c0,.22-.09.34-.1.38a.74.74,0,0,1-.19.15.46.46,0,0,1-.11.53c-.07-.14-.07-.24,0-.31-.1,0-.15-.07-.15-.22v1.38l-.11.06c-.11-.08-.2-.48-.27-1.22a1.34,1.34,0,0,1-.07.39,1.07,1.07,0,0,0-.08.3,9.84,9.84,0,0,0,.1,1.06.58.58,0,0,0-.21-.11c0,.28,0,.46-.11.53a1.26,1.26,0,0,1-.29-.82,2.35,2.35,0,0,0-.08-.66c-.1-.29-.16-.45-.16-.48a.12.12,0,0,1,0,.1,9.27,9.27,0,0,1,0-1.53c-.14-.18-.19-.29-.16-.32a.74.74,0,0,0,.11.16.57.57,0,0,0-.27-.58v1.59c0,.17,0,.26,0,.26,0,.39-.09,1-.16,1.7h-.05a4.66,4.66,0,0,1-.27-1.49l-.16.37-.26-.1a10,10,0,0,0-.06-1c0-.53,0-.87,0-1l-.47.11c-.11,0-.16,0-.16-.05,0,.6-.09,1.46-.16,2.59l-.16.22a4.55,4.55,0,0,0,.16,1.11,2.55,2.55,0,0,0-.06.9,10.52,10.52,0,0,0,.75,3.39c.07,0,.12.05.15.16a1.35,1.35,0,0,0,.32.42c.11-.1.18-.14.22-.1-.15.14-.22.23-.22.26a3.57,3.57,0,0,1,.69.64,9.33,9.33,0,0,1,1.22.32,2,2,0,0,0,.74-.11l.37-.32a3.63,3.63,0,0,0,1.38-.47,13.24,13.24,0,0,0,2.07-1.59,12,12,0,0,1,1.38-1.49c.28-.39.65-1,1.11-1.75a4.79,4.79,0,0,1,.53-.84,18.94,18.94,0,0,0,2.17-3.24,7.45,7.45,0,0,0,.59-1.27.14.14,0,0,1-.06-.11c.18-.42.43-1,.74-1.85a10.25,10.25,0,0,0,.16-1.33,1.47,1.47,0,0,0,.22-.31c-.15,0-.22,0-.22-.11s.2-.49.27-1.38a.18.18,0,0,1-.11-.05A.49.49,0,0,0,580.83,282.82Zm-13.25,20.25h-.38a.13.13,0,0,1-.13-.08c0-.05,0-.08-.08-.08a1.27,1.27,0,0,1-1-.37C566.43,302.68,566.94,302.86,567.58,303.07ZM567,289.39a2.15,2.15,0,0,1-.47-.1v-.53a.29.29,0,0,1,.21.1.15.15,0,0,0,.1-.15l.16.21Zm-.16-.1V289h-.16v.27Zm.06,3h-.11l-.11-.16.11,0Zm.1-4.24a.57.57,0,0,1,0,.42h-.16v-.26Zm.27,4.93s0-.07-.11-.11v.74a.58.58,0,0,0-.21.11c-.11-.35-.13-.56-.05-.64a3.42,3.42,0,0,1,.37-.42Zm-.16,2.65-.06-.11-.15.11v.1Zm.16,1.16h-.11L567,297l.11.06Zm.1-2.7a.4.4,0,0,1-.26-.16,1.63,1.63,0,0,1,0,.43Q567.36,294.38,567.36,294.11Zm.11-2.91v-.27h-.11v.27Zm.42-13-.37.37-.1-.05.42-.43Zm-.26,15.27-.11.15h-.1l.1-.21Zm3.07-23.06a25.7,25.7,0,0,1-2.38,3.29q-.11,0-.06-.06s0,0,0,0a.18.18,0,0,0-.16.11c0,.07-.07.1-.1.1v-.26a24.78,24.78,0,0,0,1.64-3.13Zm-2.59,27.88-.06.05-.1-.1,0-.06Zm.1-5.94v-.26h-.1v.26Zm.27.37-.06-.05-.16.16.06.11Zm2-16-.11.21-.1-.05.1-.21Zm1.43-1.91a.29.29,0,0,1-.16-.1c-.18.46-.26.63-.26.53s-.29.12-.53.37a.17.17,0,0,1,.16.1s-.16.18-.38.53A6,6,0,0,0,571.92,274.87Zm-.9,15.21-.11.22-.1-.06.1-.21Zm0-.84h-.16v-.38H571Zm.27.68-.11.22-.11-.06.11-.21Zm.1-1.43h-.1l-.11.27.11.05Zm-.1,1h-.11v-.21h.11Zm.79-14.79-.11-.05-.05.21H572Zm.37,9.81v-.27h-.11v.27Zm2.65-3.82-.26.16-.06-.11.27-.16Zm.37-.16-.21.11v-.11l.16-.11Zm2.33-11.92-.26.47.21.48a.76.76,0,0,1-.42.64,1.52,1.52,0,0,1-.64.26c-.78,0-1.16-.42-1.16-1.27,0-.53.4-.83,1.21-.9a.81.81,0,0,0,.22-.06,1,1,0,0,1,.26-.05C577.61,268.14,577.8,268.28,577.8,268.57ZM577.43,281c0,.07-.09.19-.26.37l.05-.42-.1-.11s-.16.05-.38.05a1,1,0,0,0,.32-.21c0-.1,0-.19-.24-.26a1.74,1.74,0,0,0-.61-.11,1,1,0,0,0-.26.05h-.21a1.47,1.47,0,0,1,.63-.1C577.08,280.28,577.43,280.53,577.43,281Zm-.16.53a.16.16,0,0,1-.1-.05.21.21,0,0,0-.16-.06.89.89,0,0,0-.37.19l-.37.24c.67,0,1,0,.85-.05S577.17,281.55,577.27,281.55Zm0-2.07v-.1h-.47v.1Zm1.44-3.76-.64-.05a1.21,1.21,0,0,0-.64.26s.06,0,.06-.05h.16c.14,0,.33.12.58.37l.16-.16s.07.05.21.05q-.06,0-.27-.21A.4.4,0,0,0,578.71,275.72Zm-.75,3.45h-.42l-.11.21h.43A.45.45,0,0,1,578,279.17Zm-.05-7.48-.11.06-.1-.11.1-.05Zm1.17,1.64v-.15h-.22v.15Zm.84,26.5s-.12.08-.37.32a.14.14,0,0,0,.16.16,3.54,3.54,0,0,0-.42.37C579.36,300.05,579.57,299.76,579.92,299.83Zm-.31-.1-.16.26-.11-.05.16-.26Zm5-8.38a15.67,15.67,0,0,1-.85,2.34.38.38,0,0,0,0,.26c0,.14-.08.21-.13.21a.22.22,0,0,0-.16.11c0,.07-.1.11-.13.11a.21.21,0,0,1,.16.05.54.54,0,0,0-.21.05s.1.06.21.06c-.14.31-.29.63-.45.95a1.94,1.94,0,0,1-.77.79.37.37,0,0,0,.05.22s-.12,0-.26.05a.32.32,0,0,0,.21.05,5.45,5.45,0,0,0-.53,1c-.11-.11-.18-.16-.21-.16s.09,0,0-.05L581,298a.44.44,0,0,0,.32.11h.11a5.54,5.54,0,0,0-.37.79,10.6,10.6,0,0,0-.9.9s.05-.1.05-.31l-.27.21a.41.41,0,0,0-.21-.05.57.57,0,0,0,.16-.43,1.48,1.48,0,0,1-.37.21,1.33,1.33,0,0,1,.32-.31c.17-.14.23-.27.16-.37.49-.22.74-.52.74-.91l.21-.05a.71.71,0,0,1,.05-.48,12.31,12.31,0,0,0,.85-.95c.18-.28.41-.69.69-1.22a3.26,3.26,0,0,1,.56-.9,5.31,5.31,0,0,0,.74-1.3,2.22,2.22,0,0,1,.61-1C584.46,291.85,584.54,291.64,584.64,291.35ZM580.14,280h-.27v-.16h.27Zm.21,19.19-.32.42-.11-.05.32-.42Zm.48-.32a3.23,3.23,0,0,0-.43.21,1.07,1.07,0,0,0,.21-.31A.52.52,0,0,0,580.83,298.88Zm.15-.32-.37.16v-.1l.32-.16Zm.43-25.91,0,.1-.32-.21.05-.11Zm.21,25.22h-.26c.07-.07.1-.12.1-.15Zm.11-25a.15.15,0,0,0-.06.11.19.19,0,0,0-.21-.21C581.64,272.81,581.73,272.84,581.73,272.91Zm1.16,22.79h-.1v-.21h.1Zm1-21.57-.58-.05v-.16l.58.1Zm-.27.85a.35.35,0,0,1,.06-.16v-.11h.16l.1.06S583.85,274.87,583.63,275ZM585,290.56h-.11l-.1.37h.16Zm1.43-10.86-.32-.69a4.92,4.92,0,0,0,.32,1.43A1.32,1.32,0,0,0,586.39,279.7Z" transform="translate(-255.14 -259.07)"/><path class="cls-1" d="M627.57,291.89c-.18,0-.39.15-.64.47h-.26c-.14,0-.2-.09-.16-.16s0-.1-.16-.1c0,0-.1.09-.42.26a.65.65,0,0,0,.32.06q-.16,0-.27.21c.14.42-.13,1.09-.82,2a16.44,16.44,0,0,1-3,2.92,79.58,79.58,0,0,1-10,6.73h-.37L612,304a13.75,13.75,0,0,0,2.65-1.91c.07,0,0-.05-.11-.05a1.79,1.79,0,0,0-1.06.58,4.59,4.59,0,0,1-2.17,1c.07-.11.09-.2.05-.27-.39.21-1,.57-1.69,1.06a27.82,27.82,0,0,1-3.93,2.07s-.07,0-.1.1a.5.5,0,0,1-.21.59.19.19,0,0,0,.26,0,6,6,0,0,1-1.64.79,12.7,12.7,0,0,1-3.08.69.82.82,0,0,1-.31-.11.84.84,0,0,0-.32-.1,1.12,1.12,0,0,0-.27.05.69.69,0,0,1-.26.05l-.66.08a5.73,5.73,0,0,1-.69.08,2,2,0,0,0-.4.06l-.37.05a5.29,5.29,0,0,1-3.34-1.11A9.63,9.63,0,0,1,593,306.2q-1.05-1.33-1.32-1.65c.1-.25.21-.37.32-.37s.47.18.69.53a10.42,10.42,0,0,0,2.22,2.65l1,.48.42,0s0-.09-.16-.16a2,2,0,0,1-.26-.22,2.62,2.62,0,0,1,.84.64s.08,0,.14-.11a.26.26,0,0,1,.23-.1,1,1,0,0,1,.38.13,1,1,0,0,0,.37.13c.07,0,.19-.08.37-.24a1.3,1.3,0,0,1,.47-.29,20.53,20.53,0,0,1-2.59-.74,6.57,6.57,0,0,1-.8-.74c.07.07.16.05.27,0,0,.14-.07,0-.21-.32-.25.14-.36.21-.32.21a2.45,2.45,0,0,1-1.33-.74c0-.11.07-.23.11-.37a13.11,13.11,0,0,1-1.19-1,5,5,0,0,0-1-.79c-.08,0-.11.07-.11.21a1.84,1.84,0,0,0-.85-.9,1.39,1.39,0,0,0-.1-.53,16,16,0,0,1-2.34-7.42,21.72,21.72,0,0,1,1,3.12c0,.18.09.45.16.8a1,1,0,0,1,.19.37,5.16,5.16,0,0,0,.76,1.16,2,2,0,0,0,.06-.68A2,2,0,0,0,590,298a.49.49,0,0,1-.08-.24c0-.12,0-.22,0-.29a.57.57,0,0,0-.14-.29.71.71,0,0,1-.13-.24,9.54,9.54,0,0,1-.47-2.33s-.06,0-.16-.16c0-.95,0-1.77-.06-2.44-.07-.88-.12-1.24-.16-1.06a1.12,1.12,0,0,0,.22-.42q0-.31-.48-.69c.11-.07.23,0,.37.1,0-.17.21-1.39.53-3.65a.23.23,0,0,0-.26.26,1.58,1.58,0,0,1,.26-.85.32.32,0,0,0,.34-.26c.06-.18.1-.34.14-.48s0-.1-.11-.1v-.53c.6-.11.85-.76.74-2l-.1-.11.74-1.7c-.28.32-.66.8-1.11,1.43a37.65,37.65,0,0,0-1.81,4.67,24.9,24.9,0,0,0-.69,3.76v-.95q.06-.69.06-1a8.77,8.77,0,0,0-.37,1.06,33.06,33.06,0,0,1,3-8.95l-.06-.37-.26.29a1.41,1.41,0,0,1-.32.29c.39-.39.93-1,1.64-1.86.43-.63,1.08-1.53,2-2.7a24.07,24.07,0,0,1,6-5.46,13.41,13.41,0,0,1,6.79-2.33c.28,0,.77,0,1.46-.08l1.14-.08q-.12,0,1.59.24a8.38,8.38,0,0,1,2.43.61,6.58,6.58,0,0,0,1.38,1.16.28.28,0,0,1,.24.11c0,.07.1.11.13.11h.11a1.53,1.53,0,0,0-.58-.85c.31.21.77.49,1.37.85a3.28,3.28,0,0,1-.53.58l.32.42q-.1.21.21.69a2.58,2.58,0,0,1,0,.48.59.59,0,0,0,.37.21s0-.09.21-.26c.18.17.41.39.69.63a3.57,3.57,0,0,1,.53.21c0,.15.23.32.69.53a1.39,1.39,0,0,0,.82.35l1.14.18a10.68,10.68,0,0,1-1.11-.08l-.85-.07a1.35,1.35,0,0,0-.42.13,1.38,1.38,0,0,1-.43.13s-.69-.26-2-.79a.21.21,0,0,0-.13.05l-.13.1c0,.11.07.16.21.16a.41.41,0,0,0-.56.37c0,.32-.09.62-.13.91l-.9.47-.32-.26-.63.05a.5.5,0,0,0,.47.48h.53v.05a1.49,1.49,0,0,0,.59.05c.07-.1,0-.16-.11-.16a1.16,1.16,0,0,0,.74-.21.85.85,0,0,1-.53.43v.21a30.8,30.8,0,0,1-3.66.37,8.45,8.45,0,0,1-.84-.45,4.52,4.52,0,0,0-.9-.45,8.68,8.68,0,0,0-3.29.48,16.73,16.73,0,0,0-3.82,2.91,11.56,11.56,0,0,0-.69,1,3.9,3.9,0,0,0-.52.32,9.07,9.07,0,0,0-2,3.23c-.1.32-.25.48-.42.48l-.21-.11a.34.34,0,0,0,.1.26h-.1c0,.08-.45.91-1.22,2.5a16.85,16.85,0,0,1,2.17-5.15c.21-.21.51-.54.9-1s.72-1.17,1.32-2a17.34,17.34,0,0,1,1.33-1.43s0,0-.16,0c.11,0-.16.23-.79.69a18.78,18.78,0,0,0-5.68,7.21A9.84,9.84,0,0,0,595,287s-.06,0-.06.08,0,.08-.05.08a2.64,2.64,0,0,0-.53,1.64v.48l-.21-.16a1.15,1.15,0,0,0,0,.9.31.31,0,0,0-.21-.11c-.11.46-.29,1.06-.54,1.81,0,.07.08.16.22.26s-.06.09-.16.37l-.06.59a6.47,6.47,0,0,0,.06.74c-.14.24-.21.35-.21.32a2.48,2.48,0,0,0,.31.84c0-.07,0-.1-.16-.1l-.15.16a3.15,3.15,0,0,1,.31.74,7,7,0,0,0,1.49,2.44c-.28-.25-.4-.42-.35-.51s0-.13-.13-.13a.21.21,0,0,0-.21.11c0,.07-.07.1-.11.1s-.17-.33-.31-.58-.41-.32-.48-.32a.32.32,0,0,0-.21.05,3.62,3.62,0,0,1,.37.93,2.28,2.28,0,0,0,.16.66,9.56,9.56,0,0,0,1.16,1.33c.39.1,1,.3,1.8.58a9.22,9.22,0,0,0,1,.69l.48.11-.11.05a.63.63,0,0,0,.32,0,10.93,10.93,0,0,0,2.44-.37c0-.07-.11-.17-.32-.32h-.11l-.1-.1a2.32,2.32,0,0,0-.37-1.11l1.43,1.16h.21c.07,0,.11-.05.11-.16q.25.27.42.27a.42.42,0,0,0,.21-.06l.16,0,.21-.16.21.16a10.32,10.32,0,0,0,1.81-.69c.28.11,1.13-.23,2.54-1l-.95.79a.4.4,0,0,0,.37.16l2.06-1-.15-.05a.66.66,0,0,1,.15-.32.75.75,0,0,0,.16-.26v.58h.32a.51.51,0,0,0,.11-.37l.9-.27,4.56-2.91c0,.07,0,.1.16.1,0,0,.14-.19.53-.58,0,0,0-.05-.16-.05a.72.72,0,0,0-.27.13.41.41,0,0,1-.37.08v-.32a13.84,13.84,0,0,0,1.91-1.22c-.28,0-1-.05-2-.05a.68.68,0,0,0-.26.08.67.67,0,0,1-.27.08c-.28,0-1.32.32-3.12.85-.14.14-.11.21.1.21a.36.36,0,0,1-.58-.05.44.44,0,0,0-.05.26.84.84,0,0,0-.69.11h-.32s0-.11.11-.21a2.82,2.82,0,0,1-.27-.43,1.31,1.31,0,0,0-.58.48c0,.07.12.1.26.1v.48a.8.8,0,0,1-.63.32,1.81,1.81,0,0,1-.32-.05,1,1,0,0,1-.24-.08l-.08-.08a.25.25,0,0,1,0-.16,1.38,1.38,0,0,1,.18-.45,1.22,1.22,0,0,0,.19-.56,16.37,16.37,0,0,0,1.59-.95s0-.09,0-.16a1.09,1.09,0,0,1-.56.1,1.87,1.87,0,0,0-.82.22l-.21-.22-1.28.48-.76.69a3.1,3.1,0,0,1-.77.58c-.07,0-.11-.08-.11-.26s0-.34,0-.37l-.21,0,.05.32s-.14,0-.42,0a.72.72,0,0,1,.13-.27.79.79,0,0,0,.13-.26c0-.08,0-.13,0-.16a.57.57,0,0,0-.37.21.3.3,0,0,0,0-.21v-.16a.53.53,0,0,0,.37-.24.84.84,0,0,1,.27-.29.45.45,0,0,0-.32-.16c-.21,0-.26.05-.16.16s-.17,0-.53,0a2.91,2.91,0,0,1,.06-.48.93.93,0,0,0,0-.42l-.16.16c-.11,0-.22-.21-.32-.53l.37.1.16-.15a.61.61,0,0,0-.43-.22l-.26-.26a8.57,8.57,0,0,0-1.33,1.27c-.63.71-.93,1.2-.9,1.48H601l-.21-.05a.71.71,0,0,1,0-.18.73.73,0,0,0,.06-.3.53.53,0,0,0-.37-.1c1.09-1.63,1.64-2.46,1.64-2.49a1.71,1.71,0,0,0-.24-.53,1.82,1.82,0,0,1-.24-.53c0-.74.66-1.65,2-2.71.36-.17.83-.44,1.43-.79.29-.25.48-.37.59-.37s.09,0,.08.05,0,0,.08,0a23.75,23.75,0,0,0,2.33-.79.28.28,0,0,0,.32.32l.74-.21v-.11c-.07-.07-.27,0-.58.16a.48.48,0,0,1-.11-.27,5.7,5.7,0,0,1,1.22.06c.11-.11.19-.16.26-.16s.5-.09,1.28-.27a15.93,15.93,0,0,1,1.8-.32l2-.15a14.21,14.21,0,0,1,1.7-.06c.21,0,.26-.05.15-.16a22.43,22.43,0,0,0,3.18,0,9.16,9.16,0,0,0-2.17-.31.21.21,0,0,0-.16.05.32.32,0,0,1-.21.05h-.26a1.9,1.9,0,0,0-.48-.05c0-.07.1-.16.32-.27l.68-.16a3.59,3.59,0,0,1,.43.11q1.38,0,2.49,0a1.88,1.88,0,0,0,.48.11,5.17,5.17,0,0,0,.53.05,3.62,3.62,0,0,0,1.32-.27v.38a.32.32,0,0,1,.16.05.47.47,0,0,0,.16.05,2.28,2.28,0,0,0-.05-.34,1.67,1.67,0,0,1-.06-.35q0-.69,1.17-.69a1.15,1.15,0,0,1,.74.32c0,.18-.12.32-.37.43a4.09,4.09,0,0,0-.85.47c.14.46.36.69.64.69a1.39,1.39,0,0,0,.34-.08,1.44,1.44,0,0,1,.35-.08,3.65,3.65,0,0,1,1.06.35c.53.23.79.45.79.66V286h-.47a.2.2,0,0,0-.06.16,2.11,2.11,0,0,0,.19.55,2.51,2.51,0,0,1,.18.56c0,.07-.08.2-.26.4s-.27.33-.27.4c0,.24.23.37.69.37a1.33,1.33,0,0,1-.26.74c0,.07.16.11.37.11,0,.07.07.15.21.26a1.16,1.16,0,0,1-.74.42c-.07,0-.11,0-.11-.05s0-.05-.1-.05-.14,0-.08.1,0,.11,0,.11c-.25,0-.35,0-.32,0,.14.32.29.47.43.47h.16s0-.05,0-.05c0,.21,0,.34-.11.37l1,.8Zm-40-1.38-.11.26-.16,0,.16-.27Zm0,2v-.27h-.16v.27Zm1.11-3.13-.16.21-.1-.05.1-.21Zm.16,5.51-.11.11-.21-.21.11-.11Zm.11.53-.11-.26-.16.05.11.21Zm1.27-12.08-.16-.11-.11.11.16.11Zm1,17.91a2.45,2.45,0,0,0-.63-.95l-.21.05A5.84,5.84,0,0,0,591.26,301.21Zm7.85-29.15a6.54,6.54,0,0,0-1.22,1.06.29.29,0,0,0-.21-.1s-.14.17-.53.53l-.16-.16-.85.63a16.8,16.8,0,0,0-4,4.56,15.93,15.93,0,0,0-1,1.7c.25-.25.35-.37.32-.37a.64.64,0,0,1,.1.37,2.24,2.24,0,0,1-.37,1.06c-.17.28-.35.58-.53.9a2.26,2.26,0,0,1,.11.26c.14-.31.33-.72.58-1.21s.64-.91,1.06-1.54a.35.35,0,0,0,0-.37,16.86,16.86,0,0,0,1.54-2,38.61,38.61,0,0,1,3.5-3.76C597.82,273.28,598.37,272.77,599.11,272.06Zm-8.06,31.22V303h-.16v.26Zm2.92-8.37v-.22h-.16v.22Zm.1-2.71h-.15v-.37h.15Zm.32-2.7,0,.11-.16-.16.11-.11Zm.64,15.79a.46.46,0,0,0-.08-.23l-.11-.19s-.06,0-.13,0a.57.57,0,0,1-.32,0A1.69,1.69,0,0,0,595,305.29Zm1.38-15.52a2.77,2.77,0,0,1-.53.74.68.68,0,0,1-.06.58h-.42v-.42c.18-.22.44-.52.79-.9ZM595.72,275h-.22v-.16h.22Zm.74,24.38c0-.35-.2-.53-.58-.53a.5.5,0,0,0-.27.1c.11.64.16.9.16.8h.53A.64.64,0,0,0,596.46,299.36Zm3.29,6.73a1.89,1.89,0,0,1-.38,0h-.31a1.5,1.5,0,0,1-.51-.24,1.49,1.49,0,0,0-.5-.24l-.27.11q.16,0,.27.42a6.13,6.13,0,0,0,.69.21l.26-.16A1.92,1.92,0,0,1,599.75,306.09Zm-.32-34.29-.11-.05-.21.21,0,.1Zm.69,34.71v-.16h-.32v.16Zm1.9.37a2,2,0,0,1-1.06.32h-.47a.57.57,0,0,1,.42-.16A4.42,4.42,0,0,0,602,306.88Zm3.08-.1a18.27,18.27,0,0,0-2,.85h-.58v-.27a1.67,1.67,0,0,0-.69-.1,1,1,0,0,1,.48-.22c.11,0,.11-.05,0-.16a5.34,5.34,0,0,1,.69.08,4.59,4.59,0,0,0,.53.08A9.37,9.37,0,0,0,605.1,306.78Zm-2.6-.74h-.32l.11.1a.89.89,0,0,1-.42.16.53.53,0,0,0,.1.27.5.5,0,0,1,.37-.16.29.29,0,0,1-.21-.06A2,2,0,0,0,602.5,306Zm.27-15.8a1.8,1.8,0,0,0-.16.21,2.66,2.66,0,0,1-.16.22l-.21-.22A1.91,1.91,0,0,1,602.77,290.24Zm.31,9.33c-.14.11-.33.25-.58.42a.52.52,0,0,1,.21.11C602.71,300.24,602.84,300.07,603.08,299.57Zm1.59,6.47c-.07,0-.17-.08-.31-.22l-1,.32A4.92,4.92,0,0,0,604.67,306Zm3-1.28a21.72,21.72,0,0,1-3,1,1.86,1.86,0,0,1,.11.27,1.4,1.4,0,0,1,.42-.11,1.29,1.29,0,0,0,.8-.48l.26.32A6,6,0,0,0,607.64,304.76Zm-2-2.54h-.32v-.16h.32Zm.58-2.54-.05-.16-.21.1v.16Zm5.35,4.82-.21-.05a.77.77,0,0,0-.21-.06,9.27,9.27,0,0,1-1.59,1.06,6.26,6.26,0,0,1-1.48.75c-.15,0-.22,0-.22-.11v.16a14.28,14.28,0,0,1-1.74,1h.31a12,12,0,0,0,2.71-1.28Zm-2.65-.9h-.31a7,7,0,0,0-1.17.53.34.34,0,0,1,0-.16.53.53,0,0,1,.26-.05.3.3,0,0,0-.21-.16,1.56,1.56,0,0,1-.42.47,5.39,5.39,0,0,0,.71-.05l.56-.05S608.45,304,608.91,303.6Zm-1.06,1.11h.32l.37-.32Zm1.17-.48a.19.19,0,0,1-.21-.21.86.86,0,0,1-.21.13,1.05,1.05,0,0,0-.22.14A1.61,1.61,0,0,0,609,304.23Zm.37-.1H609V304h.37Zm0-3.18h-.16l-.11.21.16,0Zm.32,2.17-.06-.16-.47.21v.16Zm3.23-2.07a5.37,5.37,0,0,0-1.22.48c.07.14,0,.27-.16.37a7.56,7.56,0,0,0-1.54,1l.27-.27a.31.31,0,0,1,0,.19.31.31,0,0,0,.05.19.25.25,0,0,1,.14-.08.57.57,0,0,0,.13-.08l.08.1a.38.38,0,0,0,.08.11,2.81,2.81,0,0,0-1.33.85.66.66,0,0,0,.59-.11c-.11-.11-.13-.19-.06-.26a.44.44,0,0,0,.32.1c.18,0,.59-.28,1.22-.85a.9.9,0,0,1,.21-.5,1,1,0,0,0,.21-.4.21.21,0,0,1,.06-.16A5.57,5.57,0,0,0,612.89,301.05Zm.11-34.6a1,1,0,0,1-.64.21c.1.56,0,.85-.37.85h-.16a.25.25,0,0,1-.16.05c-.25,0-.57-.3-.95-.9a3.14,3.14,0,0,1-.59-1.22v-.32l1.86.32C612.66,265.65,613,266,613,266.45Zm-1.81,36.14h-.31a.52.52,0,0,1-.11.21A.61.61,0,0,0,611.19,302.59Zm1.91-4.24c-.07.14-.19.35-.37.64a9.24,9.24,0,0,0-.9.37.43.43,0,0,0-.32,0,.44.44,0,0,1,.11-.32s0,0,.16,0a1.65,1.65,0,0,0,.63-.31A6.56,6.56,0,0,1,613.1,298.35Zm-.9-22.63v-.16h-.27v.16Zm.58,23.11-.26.1v-.1l.21-.11Zm.64-.37-.21.32-.11-.11.21-.32Zm7.26-3c-.42.28-1.06.69-1.91,1.22-.25.25-.55.53-.9.85a16.59,16.59,0,0,1-1.54.63c.11.21,0,.39-.31.53a4,4,0,0,0-.8.43,1.31,1.31,0,0,1-.32.58l-.16-.11v-.05a1.34,1.34,0,0,1-.58.42c0,.11-.19.25-.48.43l-.21.42a1.91,1.91,0,0,0,.8-.63c.1.1.14.16.1.16a9.45,9.45,0,0,0,2.49-1.49.35.35,0,0,1-.1-.26l0-.06a.91.91,0,0,1,.37-.21h.11l-.37.37.9-.42V298a2.17,2.17,0,0,1,.79-.63.3.3,0,0,0,.22-.06,2.42,2.42,0,0,1,.53-.42C619.67,296.6,620.11,296.13,620.68,295.49ZM615.27,301a.46.46,0,0,1-.15-.27,2.06,2.06,0,0,0-.64.43c.25-.18.42-.21.53-.11a1,1,0,0,1-.29.27,2.1,2.1,0,0,0-.35.26A1.5,1.5,0,0,0,615.27,301Zm0-26.08q-.21.27-.63.9a4.45,4.45,0,0,0-.16-1.27h.32A1.43,1.43,0,0,0,615.27,274.87Zm-.21,27-.32.21-.1-.16.32-.21Zm1.33-2.12a11,11,0,0,1-1.27.74.53.53,0,0,0,.1.27,1.49,1.49,0,0,0,.48-.27V301a.42.42,0,0,1,.32-.21,1.69,1.69,0,0,1,.05-.53.18.18,0,0,0,.21.05C616.35,300.37,616.39,300.19,616.39,299.73Zm-.69-27.19a.57.57,0,0,0-.21-.37.19.19,0,0,0,.21-.21Zm1.69,23.16a5.12,5.12,0,0,1-1.53,1.11c0-.35.31-.65.85-.9l.58-.42A.5.5,0,0,0,617.39,295.7Zm-1-2.86-.37-.11v.11l.31.11Zm0,8.11-.06-.16L616,301l.05.16Zm.21-2-.48.32,0-.16.42-.26Zm2.7-3.6a3.05,3.05,0,0,0-.69.27l-2.38,1.9c.17.15.42.09.74-.16A16.6,16.6,0,0,0,619.3,295.33Zm.37-18.34a4.35,4.35,0,0,0-1.48.48c-.18,0-.36-.14-.53-.42a3.12,3.12,0,0,1-.64-.11.64.64,0,0,1,.11-.58c-.53-.71-.78-1.12-.74-1.22h.42a1.4,1.4,0,0,1,.48.26,1.16,1.16,0,0,0,.53.27,11,11,0,0,0,1.16-.37c0,.28-.05.46-.15.53l.55.21a.44.44,0,0,1,.29.48Zm-2.43,17.12-.11-.1-.69.47.11.11Zm-.06,5.09h-.32a1.75,1.75,0,0,1-.42.53A2.89,2.89,0,0,0,617.18,299.2Zm-.32,1.43-.1-.11-.21.27.1,0Zm.27-.16,0-.1-.22.1v.11Zm.42-2.33V298h-.42v.16Zm7.37-4.82c0-.18-.12-.27-.37-.27a.37.37,0,0,1,.11.37l-.69.69-.16-.16-.24.27-.19.21a2.37,2.37,0,0,1,.37.32c.07.17-.33.51-1.21,1a4.64,4.64,0,0,1,.74-1.43,3.75,3.75,0,0,1-.69.22,2.4,2.4,0,0,1-1.38,1.16.1.1,0,0,1,.11.11c-.64.49-1.49,1.2-2.55,2.12q0-.1-.21-.06c.07,0,0,.18-.21.43,0,0,0-.05,0-.27-.21,0-.42.16-.64.48q.16.17.48.42,2.34-1.95,3.76-3s.11.06.22.16c-.43.43-1.08,1-2,1.86a16,16,0,0,0-3,2.33,1,1,0,0,1,.58-.05c0-.14,0-.22.1-.22a15.88,15.88,0,0,0,1.86-1.43.08.08,0,0,1,0,.11s0,.05.05.05.13-.07.27-.21a.68.68,0,0,1-.27-.05l.21-.27a.37.37,0,0,1,.11.27,24.73,24.73,0,0,0,2.07-1.59c-.18-.18-.11-.37.21-.59.07.08.09.13.05.16a1.26,1.26,0,0,0-.21.32c.35-.32.87-.76,1.54-1.32a1.5,1.5,0,0,1,.9-1.17C624.85,293.35,624.92,293,624.92,293.32Zm-6-21.73a.92.92,0,0,1-.1.42h-.64c-.21,0-.41-.26-.58-.79a4,4,0,0,0,1.11.1Q618.93,271.53,618.93,271.59Zm.48,22.42-.11-.11-.21.32.11.1Zm.26-.27v-.32h-.16v.32Zm1.49,1.54-.11-.11-.32.21.06.11Zm1.22-.43-.27.11v-.11l.21-.16Zm.53-11.71h-.22V283h.22Zm.05,11.18-.27.11v-.16l.22-.11Zm1.11-.47-.16-.11-.1.05.16.16Zm2.39-7.85c.07-.1,0-.37-.27-.79h-.32v.42C626,285.7,626.17,285.83,626.46,286Zm1.48-4.5c-.11-.07-.26,0-.48.26a4.51,4.51,0,0,1-.63-.21c0,.11-.05-.11-.05-.64,0-.24.15-.45.47-.63a6.26,6.26,0,0,0,.69.69Zm-.9,7.26h-.11l-.1-.21.1-.06Zm.69-10c-.25,0-.37,0-.37.11a.5.5,0,0,1-.16-.37l.37.1a.35.35,0,0,0,.16-.16Zm3.28,3.5a5.46,5.46,0,0,1-.58,1.22,1.18,1.18,0,0,0-.42-.16c-.07,0-.14.05-.21.16a.64.64,0,0,0-.53-.32c-.43,0-.82.35-1.17,1.06-.6,0-.9-.25-.9-.64,0-.07.1-.23.32-.47.49-.21.81-.36,1-.43a2.17,2.17,0,0,0,.8-.79,2.3,2.3,0,0,0,.42-.16,1.51,1.51,0,0,1,.53-.16C630.75,281.55,631,281.78,631,282.24Zm-3.44,7.53-.11-.11-.1,0,.16.16Zm.48-.22-.22.22-.1-.11.21-.21Zm.53.16a.29.29,0,0,0-.27.11q.21.21,0,.21c0-.14,0-.21-.16-.21v-.43A.49.49,0,0,1,628.58,289.71Z" transform="translate(-255.14 -259.07)"/></svg>